<?xml version="1.0" standalone="no"?>
<!DOCTYPE svg PUBLIC "-//W3C//DTD SVG 20010904//EN"
 "http://www.w3.org/TR/2001/REC-SVG-20010904/DTD/svg10.dtd">
<svg version="1.0" xmlns="http://www.w3.org/2000/svg"
 width="260.000000pt" height="260.000000pt" viewBox="0 0 260.000000 260.000000"
 preserveAspectRatio="xMidYMid meet">
<metadata>
Created by potrace 1.11, written by Peter Selinger 2001-2013
</metadata>
<g transform="translate(0.000000,260.000000) scale(0.100000,-0.100000)"
fill="#000000" stroke="none">
<path d="M1405 2314 c-101 -20 -253 -60 -265 -69 -20 -16 -119 -65 -131 -65
-5 0 -9 18 -9 40 l0 40 -290 0 -290 0 0 -80 0 -80 -210 0 -210 0 0 -730 0
-730 65 0 65 0 0 -98 0 -99 78 -18 c97 -22 318 -31 393 -16 78 16 166 61 224
114 l51 45 39 -30 c67 -50 175 -110 255 -141 245 -94 542 -93 788 4 l73 29
244 0 c135 0 245 4 245 8 0 4 -25 71 -55 149 -30 78 -55 147 -55 153 0 6 13
30 29 53 117 172 178 424 152 637 -20 163 -69 298 -157 431 -24 37 -44 72 -44
78 0 6 29 76 65 155 36 79 65 146 65 150 0 3 -128 6 -283 6 -257 0 -289 2
-341 20 -101 34 -211 50 -345 49 -69 -1 -135 -3 -146 -5z m-445 -743 c0 -705
-2 -730 -56 -865 -38 -96 -119 -182 -212 -225 -120 -55 -279 -61 -473 -20
l-49 11 0 210 0 210 28 -6 c15 -4 56 -9 92 -12 57 -5 69 -3 100 18 19 13 40
35 47 48 10 19 13 171 13 653 l0 627 255 0 255 0 0 -649z m740 317 l1 -333 34
85 c18 47 68 173 110 280 41 107 84 215 94 240 l17 45 252 3 c139 1 252 0 252
-3 0 -5 -89 -206 -159 -360 -15 -33 -65 -145 -111 -248 -82 -184 -84 -188 -71
-225 8 -20 47 -122 87 -227 41 -104 100 -255 131 -335 31 -80 73 -188 94 -240
20 -52 35 -98 32 -102 -2 -5 -118 -8 -257 -8 -191 0 -256 3 -263 13 -6 6 -42
107 -81 222 -124 367 -160 466 -164 453 -2 -7 -5 -159 -7 -338 -2 -179 -5
-328 -8 -332 -2 -5 -114 -8 -248 -8 l-243 0 -4 868 c-2 477 -2 870 0 875 2 4
118 7 258 7 l254 0 0 -332z"/>
</g>
</svg>
